<?xml version="1.0" encoding="utf-8"?>
<svg viewBox="86.462 163.927 49.565 14.063" xmlns="http://www.w3.org/2000/svg">
  <path d="M 4.501 0.325 Q 3.145 0.325 2.169 0.014 Q 1.193 -0.298 0.759 -1.288 Q 0.325 -2.277 0.596 -4.23 L 1.789 -12.634 Q 2.006 -14.071 2.684 -14.858 Q 3.362 -15.644 4.446 -15.956 Q 5.531 -16.268 6.859 -16.268 Q 8.215 -16.268 9.151 -15.942 Q 10.086 -15.617 10.533 -14.831 Q 10.981 -14.044 10.764 -12.634 L 10.303 -9.327 L 7.158 -9.327 L 7.619 -12.77 Q 7.727 -13.421 7.605 -13.76 Q 7.483 -14.099 7.212 -14.207 Q 6.941 -14.315 6.561 -14.315 Q 6.182 -14.315 5.883 -14.207 Q 5.585 -14.099 5.382 -13.76 Q 5.179 -13.421 5.07 -12.77 L 3.714 -3.064 Q 3.633 -2.44 3.742 -2.101 Q 3.85 -1.762 4.121 -1.64 Q 4.392 -1.518 4.772 -1.518 Q 5.151 -1.518 5.45 -1.64 Q 5.748 -1.762 5.978 -2.101 Q 6.209 -2.44 6.263 -3.064 L 6.724 -6.236 L 9.869 -6.236 L 9.571 -4.257 Q 9.3 -2.277 8.622 -1.288 Q 7.944 -0.298 6.914 0.014 Q 5.883 0.325 4.501 0.325 Z" transform="matrix(0.590133, 0, 0, 0.590131, 87.455111, 175.217595)" style="fill: rgb(51, 51, 51);"/>
  <path d="M 10.87 0 L 13.283 -17.135 L 16.347 -17.135 L 13.961 0 Z" transform="matrix(0.590133, 0, 0, 0.590131, 87.455111, 175.217595)" style="fill: rgb(51, 51, 51);"/>
  <path d="M 15.95 0 L 17.848 -13.421 L 20.939 -13.421 L 19.041 0 Z M 19.692 -14.831 Q 19.122 -14.831 18.756 -15.197 Q 18.39 -15.563 18.39 -16.078 Q 18.39 -16.593 18.756 -16.945 Q 19.122 -17.298 19.692 -17.298 Q 20.234 -17.298 20.6 -16.945 Q 20.966 -16.593 20.966 -16.078 Q 20.966 -15.563 20.6 -15.197 Q 20.234 -14.831 19.692 -14.831 Z" transform="matrix(0.590133, 0, 0, 0.590131, 87.455111, 175.217595)" style="fill: rgb(51, 51, 51);"/>
  <path d="M 20.673 3.145 L 22.977 -13.421 L 26.041 -13.421 L 25.905 -12.363 Q 26.231 -12.824 26.773 -13.231 Q 27.315 -13.638 28.427 -13.638 Q 29.376 -13.638 30.013 -13.326 Q 30.65 -13.014 30.948 -12.323 Q 31.247 -11.631 31.057 -10.438 L 30.135 -3.931 Q 29.945 -2.44 29.484 -1.532 Q 29.023 -0.624 28.291 -0.23 Q 27.559 0.163 26.502 0.163 Q 25.553 0.163 25.051 -0.176 Q 24.55 -0.515 24.333 -0.949 L 23.763 3.145 Z M 25.58 -1.6 Q 26.095 -1.6 26.366 -1.803 Q 26.637 -2.006 26.773 -2.372 Q 26.908 -2.738 26.963 -3.172 L 27.939 -10.113 Q 27.966 -10.465 27.979 -10.75 Q 27.993 -11.035 27.912 -11.252 Q 27.83 -11.469 27.613 -11.591 Q 27.397 -11.713 26.99 -11.713 Q 26.61 -11.713 26.366 -11.577 Q 26.122 -11.442 25.973 -11.252 Q 25.824 -11.062 25.756 -10.818 Q 25.688 -10.574 25.661 -10.384 L 24.631 -3.091 Q 24.577 -2.63 24.604 -2.291 Q 24.631 -1.952 24.861 -1.776 Q 25.092 -1.6 25.58 -1.6 Z" transform="matrix(0.590133, 0, 0, 0.590131, 87.455111, 175.217595)" style="fill: rgb(51, 51, 51);"/>
  <path d="M 35.905 0.19 Q 34.278 0.19 33.248 -0.217 Q 32.217 -0.624 31.838 -1.654 Q 31.458 -2.684 31.702 -4.555 L 31.838 -5.504 L 35.118 -5.504 L 34.956 -4.284 Q 34.82 -3.281 34.901 -2.752 Q 34.983 -2.223 35.267 -2.02 Q 35.552 -1.817 35.959 -1.817 Q 36.555 -1.817 36.976 -2.264 Q 37.396 -2.711 37.586 -4.013 Q 37.748 -5.016 37.491 -5.517 Q 37.233 -6.019 36.609 -6.331 Q 35.986 -6.643 34.956 -7.104 Q 34.061 -7.51 33.532 -8.08 Q 33.004 -8.649 32.827 -9.517 Q 32.651 -10.384 32.814 -11.631 Q 33.031 -13.204 33.6 -14.18 Q 34.169 -15.156 35.213 -15.603 Q 36.257 -16.051 37.938 -16.051 Q 40.134 -16.051 41.151 -15.115 Q 42.168 -14.18 41.896 -12.309 L 41.625 -10.384 Q 40.839 -10.384 40.053 -10.384 Q 39.267 -10.384 38.48 -10.384 L 38.643 -11.36 Q 38.806 -12.58 38.589 -13.068 Q 38.372 -13.556 37.64 -13.556 Q 36.908 -13.556 36.569 -13.122 Q 36.23 -12.689 36.067 -11.713 Q 35.959 -10.899 36.203 -10.411 Q 36.447 -9.923 36.948 -9.639 Q 37.45 -9.354 38.209 -9.056 Q 39.348 -8.595 40.039 -8.12 Q 40.731 -7.646 40.961 -6.819 Q 41.192 -5.992 40.975 -4.446 Q 40.731 -2.711 39.999 -1.695 Q 39.267 -0.678 38.209 -0.244 Q 37.152 0.19 35.905 0.19 Z" transform="matrix(0.590133, 0, 0, 0.590131, 87.455111, 175.217595)" style="fill: rgb(51, 51, 51);"/>
  <path d="M 42.043 0 L 44.429 -17.081 L 47.33 -17.081 L 46.598 -11.93 Q 46.95 -12.743 47.71 -13.177 Q 48.469 -13.611 49.391 -13.611 Q 50.367 -13.611 50.936 -13.353 Q 51.505 -13.095 51.763 -12.634 Q 52.02 -12.174 52.048 -11.523 Q 52.075 -10.872 51.966 -10.059 L 50.556 0 L 47.466 0 L 48.794 -9.598 Q 48.848 -9.896 48.848 -10.167 Q 48.848 -10.438 48.767 -10.655 Q 48.686 -10.872 48.469 -11.021 Q 48.252 -11.17 47.845 -11.17 Q 47.466 -11.17 47.194 -11.048 Q 46.923 -10.926 46.788 -10.764 Q 46.652 -10.601 46.625 -10.465 L 45.134 0 Z" transform="matrix(0.590133, 0, 0, 0.590131, 87.455111, 175.217595)" style="fill: rgb(51, 51, 51);"/>
  <path d="M 55.508 0.217 Q 54.938 0.217 54.355 0.108 Q 53.772 0 53.325 -0.38 Q 52.878 -0.759 52.674 -1.559 Q 52.471 -2.359 52.688 -3.769 L 53.691 -10.547 Q 53.908 -11.93 54.477 -12.58 Q 55.047 -13.231 55.738 -13.421 Q 56.429 -13.611 56.999 -13.611 Q 58.002 -13.611 58.558 -13.258 Q 59.114 -12.906 59.303 -12.418 L 59.439 -13.421 L 62.53 -13.421 L 60.632 0 L 58.192 0 L 58.436 -1.681 Q 58.219 -1.274 57.866 -0.84 Q 57.514 -0.407 56.958 -0.095 Q 56.402 0.217 55.508 0.217 Z M 56.484 -1.573 Q 56.836 -1.573 57.107 -1.776 Q 57.378 -1.979 57.555 -2.318 Q 57.731 -2.657 57.853 -3.023 Q 57.975 -3.389 58.043 -3.701 Q 58.11 -4.013 58.138 -4.23 L 59.114 -11.116 Q 59.059 -11.198 58.965 -11.36 Q 58.87 -11.523 58.653 -11.645 Q 58.436 -11.767 58.029 -11.767 Q 57.514 -11.767 57.256 -11.564 Q 56.999 -11.36 56.89 -10.953 Q 56.782 -10.547 56.646 -9.896 L 55.67 -3.199 Q 55.616 -2.684 55.657 -2.372 Q 55.697 -2.061 55.833 -1.884 Q 55.969 -1.708 56.131 -1.64 Q 56.294 -1.573 56.484 -1.573 Z" transform="matrix(0.590133, 0, 0, 0.590131, 87.455111, 175.217595)" style="fill: rgb(51, 51, 51);"/>
  <path d="M 62.648 0 L 64.519 -13.421 L 67.582 -13.421 L 66.878 -8.568 Q 67.067 -9.218 67.393 -10.059 Q 67.718 -10.899 68.233 -11.699 Q 68.748 -12.499 69.453 -13.028 Q 70.158 -13.556 71.053 -13.556 Q 71.161 -13.556 71.324 -13.556 Q 71.487 -13.556 71.568 -13.529 L 71.188 -10.682 Q 71.134 -10.709 71.012 -10.723 Q 70.89 -10.737 70.755 -10.709 Q 70.077 -10.682 69.467 -10.194 Q 68.857 -9.706 68.315 -8.92 Q 67.772 -8.134 67.338 -7.158 Q 66.905 -6.182 66.606 -5.151 Q 66.308 -4.121 66.173 -3.172 L 65.712 0 Z" transform="matrix(0.590133, 0, 0, 0.590131, 87.455111, 175.217595)" style="fill: rgb(51, 51, 51);"/>
  <path d="M 74.769 0.325 Q 73.387 0.325 72.478 -0.014 Q 71.57 -0.352 71.218 -1.301 Q 70.865 -2.25 71.109 -4.067 L 72.004 -10.221 Q 72.275 -12.174 73.414 -12.892 Q 74.553 -13.611 76.396 -13.611 Q 78.836 -13.611 79.826 -12.838 Q 80.816 -12.065 80.49 -10.005 Q 80.273 -8.812 79.568 -8.052 Q 78.863 -7.293 77.901 -6.873 Q 76.938 -6.453 76.003 -6.29 Q 75.068 -6.127 74.417 -6.1 L 74.037 -3.199 Q 73.902 -2.223 74.092 -1.83 Q 74.281 -1.437 74.986 -1.437 Q 75.637 -1.437 75.935 -1.776 Q 76.234 -2.115 76.369 -3.118 L 76.64 -4.989 L 79.704 -4.989 L 79.514 -3.579 Q 79.297 -1.979 78.769 -1.139 Q 78.24 -0.298 77.277 0.014 Q 76.315 0.325 74.769 0.325 Z M 74.688 -7.673 Q 74.986 -7.7 75.393 -7.781 Q 75.8 -7.863 76.206 -8.107 Q 76.613 -8.351 76.938 -8.798 Q 77.264 -9.245 77.399 -10.005 Q 77.562 -10.791 77.44 -11.401 Q 77.318 -12.011 76.532 -12.011 Q 75.827 -12.011 75.474 -11.604 Q 75.122 -11.198 74.959 -9.923 Z" transform="matrix(0.590133, 0, 0, 0.590131, 87.455111, 175.217595)" style="fill: rgb(51, 51, 51);"/>
</svg>