<?xml version="1.0" encoding="utf-8"?>
<svg viewBox="85.505 136.994 168.564 48.257" xmlns="http://www.w3.org/2000/svg">
  <path fill='#232323' d="M 15.471 1.118 Q 10.811 1.118 7.456 0.047 Q 4.101 -1.025 2.61 -4.427 Q 1.118 -7.829 2.05 -14.539 L 6.151 -43.431 Q 6.897 -48.371 9.227 -51.073 Q 11.557 -53.776 15.285 -54.848 Q 19.013 -55.92 23.579 -55.92 Q 28.239 -55.92 31.455 -54.801 Q 34.67 -53.683 36.208 -50.98 Q 37.746 -48.277 37 -43.431 L 35.416 -32.061 L 24.605 -32.061 L 26.189 -43.897 Q 26.562 -46.134 26.142 -47.299 Q 25.723 -48.464 24.791 -48.837 Q 23.859 -49.209 22.554 -49.209 Q 21.25 -49.209 20.224 -48.837 Q 19.199 -48.464 18.5 -47.299 Q 17.801 -46.134 17.428 -43.897 L 12.768 -10.532 Q 12.489 -8.388 12.862 -7.223 Q 13.234 -6.058 14.166 -5.639 Q 15.098 -5.219 16.403 -5.219 Q 17.708 -5.219 18.733 -5.639 Q 19.758 -6.058 20.551 -7.223 Q 21.343 -8.388 21.529 -10.532 L 23.114 -21.436 L 33.925 -21.436 L 32.899 -14.632 Q 31.967 -7.829 29.637 -4.427 Q 27.307 -1.025 23.766 0.047 Q 20.224 1.118 15.471 1.118 Z" transform="matrix(0.590133, 0, 0, 0.590131, 87.455111, 175.217595)" style="fill: rgb(51, 51, 51);"/>
  <path d="M 37.375 0 L 45.67 -58.902 L 56.201 -58.902 L 48 0 Z" transform="matrix(0.590133, 0, 0, 0.590131, 87.455111, 175.217595)" style="fill: rgb(51, 51, 51);"/>
  <path d="M 54.879 0 L 61.403 -46.134 L 72.027 -46.134 L 65.503 0 Z M 67.74 -50.98 Q 65.783 -50.98 64.525 -52.238 Q 63.267 -53.497 63.267 -55.267 Q 63.267 -57.038 64.525 -58.25 Q 65.783 -59.461 67.74 -59.461 Q 69.604 -59.461 70.862 -58.25 Q 72.121 -57.038 72.121 -55.267 Q 72.121 -53.497 70.862 -52.238 Q 69.604 -50.98 67.74 -50.98 Z" transform="matrix(0.590133, 0, 0, 0.590131, 87.455111, 175.217595)" style="fill: rgb(51, 51, 51);"/>
  <path d="M 71.1 10.811 L 79.022 -46.134 L 89.553 -46.134 L 89.087 -42.499 Q 90.206 -44.083 92.07 -45.481 Q 93.934 -46.879 97.755 -46.879 Q 101.017 -46.879 103.207 -45.808 Q 105.397 -44.736 106.423 -42.359 Q 107.448 -39.983 106.795 -35.882 L 103.627 -13.514 Q 102.974 -8.388 101.39 -5.266 Q 99.805 -2.144 97.289 -0.792 Q 94.773 0.559 91.138 0.559 Q 87.876 0.559 86.152 -0.606 Q 84.427 -1.771 83.682 -3.262 L 81.725 10.811 Z M 87.969 -5.499 Q 89.74 -5.499 90.672 -6.198 Q 91.604 -6.897 92.07 -8.155 Q 92.536 -9.413 92.722 -10.904 L 96.077 -34.763 Q 96.171 -35.975 96.217 -36.954 Q 96.264 -37.932 95.984 -38.678 Q 95.705 -39.423 94.959 -39.843 Q 94.213 -40.262 92.815 -40.262 Q 91.511 -40.262 90.672 -39.796 Q 89.833 -39.33 89.32 -38.678 Q 88.808 -38.025 88.575 -37.187 Q 88.342 -36.348 88.249 -35.695 L 84.707 -10.625 Q 84.521 -9.04 84.614 -7.875 Q 84.707 -6.71 85.499 -6.105 Q 86.291 -5.499 87.969 -5.499 Z" transform="matrix(0.590133, 0, 0, 0.590131, 87.455111, 175.217595)" style="fill: rgb(51, 51, 51);"/>
  <path d="M 123.495 0.652 Q 117.903 0.652 114.361 -0.746 Q 110.82 -2.144 109.515 -5.685 Q 108.21 -9.227 109.049 -15.658 L 109.515 -18.92 L 120.792 -18.92 L 120.233 -14.726 Q 119.767 -11.277 120.046 -9.46 Q 120.326 -7.642 121.305 -6.943 Q 122.283 -6.244 123.681 -6.244 Q 125.732 -6.244 127.176 -7.782 Q 128.621 -9.32 129.273 -13.794 Q 129.832 -17.242 128.947 -18.966 Q 128.062 -20.69 125.918 -21.762 Q 123.774 -22.834 120.233 -24.418 Q 117.157 -25.816 115.34 -27.773 Q 113.522 -29.731 112.917 -32.713 Q 112.311 -35.695 112.87 -39.983 Q 113.616 -45.388 115.573 -48.743 Q 117.53 -52.099 121.118 -53.636 Q 124.706 -55.174 130.485 -55.174 Q 138.034 -55.174 141.529 -51.959 Q 145.024 -48.743 144.092 -42.313 L 143.16 -35.695 Q 140.457 -35.695 137.754 -35.695 Q 135.051 -35.695 132.349 -35.695 L 132.908 -39.051 Q 133.467 -43.245 132.721 -44.922 Q 131.976 -46.6 129.459 -46.6 Q 126.943 -46.6 125.778 -45.109 Q 124.613 -43.617 124.054 -40.262 Q 123.681 -37.466 124.52 -35.789 Q 125.359 -34.111 127.083 -33.132 Q 128.807 -32.154 131.417 -31.129 Q 135.331 -29.544 137.708 -27.913 Q 140.084 -26.282 140.876 -23.44 Q 141.669 -20.597 140.923 -15.285 Q 140.084 -9.32 137.568 -5.825 Q 135.051 -2.33 131.417 -0.839 Q 127.782 0.652 123.495 0.652 Z" transform="matrix(0.590133, 0, 0, 0.590131, 87.455111, 175.217595)" style="fill: rgb(51, 51, 51);"/>
  <path d="M 144.549 0 L 152.75 -58.716 L 162.723 -58.716 L 160.206 -41.008 Q 161.418 -43.804 164.028 -45.295 Q 166.637 -46.786 169.806 -46.786 Q 173.161 -46.786 175.118 -45.901 Q 177.076 -45.015 177.961 -43.431 Q 178.846 -41.847 178.94 -39.61 Q 179.033 -37.373 178.66 -34.577 L 173.814 0 L 163.189 0 L 167.756 -32.993 Q 167.942 -34.018 167.942 -34.95 Q 167.942 -35.882 167.662 -36.627 Q 167.383 -37.373 166.637 -37.886 Q 165.892 -38.398 164.494 -38.398 Q 163.189 -38.398 162.257 -37.979 Q 161.325 -37.559 160.859 -37 Q 160.393 -36.441 160.3 -35.975 L 155.174 0 Z" transform="matrix(0.590133, 0, 0, 0.590131, 87.455111, 175.217595)" style="fill: rgb(51, 51, 51);"/>
  <path d="M 190.881 0.746 Q 188.924 0.746 186.92 0.373 Q 184.916 0 183.378 -1.305 Q 181.841 -2.61 181.142 -5.359 Q 180.443 -8.108 181.188 -12.955 L 184.637 -36.255 Q 185.382 -41.008 187.339 -43.245 Q 189.297 -45.481 191.673 -46.134 Q 194.05 -46.786 196.007 -46.786 Q 199.455 -46.786 201.366 -45.575 Q 203.276 -44.363 203.929 -42.685 L 204.395 -46.134 L 215.02 -46.134 L 208.496 0 L 200.108 0 L 200.947 -5.778 Q 200.201 -4.38 198.989 -2.889 Q 197.778 -1.398 195.867 -0.326 Q 193.957 0.746 190.881 0.746 Z M 194.236 -5.406 Q 195.448 -5.406 196.38 -6.105 Q 197.312 -6.804 197.918 -7.969 Q 198.523 -9.134 198.943 -10.392 Q 199.362 -11.65 199.595 -12.722 Q 199.828 -13.794 199.921 -14.539 L 203.276 -38.212 Q 203.09 -38.491 202.764 -39.051 Q 202.438 -39.61 201.692 -40.029 Q 200.947 -40.449 199.549 -40.449 Q 197.778 -40.449 196.892 -39.75 Q 196.007 -39.051 195.634 -37.653 Q 195.261 -36.255 194.795 -34.018 L 191.44 -10.998 Q 191.254 -9.227 191.394 -8.155 Q 191.533 -7.083 191.999 -6.477 Q 192.465 -5.872 193.025 -5.639 Q 193.584 -5.406 194.236 -5.406 Z" transform="matrix(0.590133, 0, 0, 0.590131, 87.455111, 175.217595)" style="fill: rgb(51, 51, 51);"/>
  <path d="M 215.401 0 L 221.832 -46.134 L 232.364 -46.134 L 229.94 -29.451 Q 230.593 -31.688 231.711 -34.577 Q 232.83 -37.466 234.6 -40.216 Q 236.371 -42.965 238.794 -44.782 Q 241.218 -46.6 244.293 -46.6 Q 244.666 -46.6 245.225 -46.6 Q 245.784 -46.6 246.064 -46.507 L 244.759 -36.721 Q 244.573 -36.814 244.153 -36.86 Q 243.734 -36.907 243.268 -36.814 Q 240.938 -36.721 238.841 -35.043 Q 236.744 -33.365 234.88 -30.663 Q 233.016 -27.96 231.525 -24.605 Q 230.034 -21.25 229.008 -17.708 Q 227.983 -14.166 227.517 -10.904 L 225.933 0 Z" transform="matrix(0.590133, 0, 0, 0.590131, 87.455111, 175.217595)" style="fill: rgb(51, 51, 51);"/>
  <path d="M 257.067 1.118 Q 252.314 1.118 249.191 -0.047 Q 246.069 -1.212 244.858 -4.474 Q 243.646 -7.736 244.485 -13.98 L 247.56 -35.136 Q 248.492 -41.847 252.407 -44.316 Q 256.321 -46.786 262.659 -46.786 Q 271.047 -46.786 274.449 -44.13 Q 277.85 -41.474 276.732 -34.391 Q 275.986 -30.29 273.563 -27.68 Q 271.14 -25.071 267.831 -23.626 Q 264.523 -22.182 261.307 -21.622 Q 258.092 -21.063 255.855 -20.97 L 254.55 -10.998 Q 254.084 -7.642 254.737 -6.291 Q 255.389 -4.94 257.812 -4.94 Q 260.049 -4.94 261.074 -6.105 Q 262.1 -7.27 262.566 -10.718 L 263.498 -17.149 L 274.029 -17.149 L 273.377 -12.302 Q 272.631 -6.804 270.814 -3.914 Q 268.996 -1.025 265.688 0.047 Q 262.379 1.118 257.067 1.118 Z M 256.787 -26.375 Q 257.812 -26.469 259.21 -26.748 Q 260.608 -27.028 262.006 -27.867 Q 263.404 -28.705 264.523 -30.243 Q 265.641 -31.781 266.107 -34.391 Q 266.666 -37.093 266.247 -39.19 Q 265.828 -41.287 263.125 -41.287 Q 260.702 -41.287 259.49 -39.889 Q 258.278 -38.491 257.719 -34.111 Z" transform="matrix(0.590133, 0, 0, 0.590131, 87.455111, 175.217595)" style="fill: rgb(51, 51, 51);"/>
</svg>